<?xml version="1.0" standalone="no"?>
<!DOCTYPE svg PUBLIC "-//W3C//DTD SVG 20010904//EN"
 "http://www.w3.org/TR/2001/REC-SVG-20010904/DTD/svg10.dtd">
<svg version="1.0" xmlns="http://www.w3.org/2000/svg"
 width="1280.000000pt" height="346.000000pt" viewBox="0 0 1280.000000 346.000000"
 preserveAspectRatio="xMidYMid meet">

<g transform="translate(0.000000,346.000000) scale(0.100000,-0.100000)"
fill="#000000" stroke="none">
<path d="M982 3263 c-22 -38 -229 -401 -461 -807 l-422 -739 202 -354 202
-353 971 0 971 1 118 209 c64 114 117 212 117 217 0 4 -53 100 -118 213 l-118
205 -399 3 -400 2 -39 68 -38 67 29 55 30 55 474 3 475 2 189 -332 c105 -183
190 -337 190 -343 0 -5 -85 -160 -189 -342 l-188 -333 -964 0 c-530 0 -964 -2
-964 -5 0 -3 84 -151 186 -330 l186 -325 920 2 920 3 459 805 c336 588 458
809 452 821 -4 9 -96 170 -203 358 l-195 341 -966 0 -967 0 -122 -216 -123
-215 24 -42 c12 -23 66 -118 120 -212 l96 -170 399 -3 400 -2 38 -67 39 -67
-29 -53 -28 -53 -480 2 -479 3 -189 332 -189 332 192 336 192 335 963 0 c530
0 964 3 964 8 -1 4 -83 151 -183 327 l-183 320 -921 3 -922 2 -39 -67z"/>
<path d="M5291 2539 c-174 -34 -345 -139 -432 -265 l-29 -43 0 -169 0 -169 28
-39 c96 -133 240 -202 575 -279 157 -36 222 -60 256 -94 18 -18 21 -33 21
-105 0 -84 0 -85 -33 -110 -67 -51 -126 -70 -217 -70 -97 0 -162 23 -217 76
l-33 32 0 103 0 103 -190 0 -190 0 0 -153 0 -154 41 -56 c77 -108 208 -194
365 -239 115 -33 343 -33 459 0 156 45 300 146 374 261 l31 48 0 176 0 176
-47 62 c-93 123 -218 184 -526 261 -286 70 -317 88 -317 181 0 55 3 62 35 93
102 96 317 99 425 7 l40 -35 0 -94 0 -94 195 0 195 0 0 133 c0 131 -1 134 -30
180 -86 135 -238 233 -422 271 -83 17 -281 20 -357 5z"/>
<path d="M6340 1715 l0 -805 560 0 560 0 0 150 0 150 -362 2 -363 3 -3 183 -2
182 330 0 330 0 0 155 0 155 -330 0 -330 0 2 163 3 162 353 3 352 2 0 150 0
150 -550 0 -550 0 0 -805z"/>
<path d="M7780 1715 l0 -805 185 0 185 0 0 487 c0 283 4 483 9 477 5 -5 127
-224 272 -486 l263 -478 213 0 213 0 0 805 0 805 -190 0 -190 0 0 -482 c0
-265 -3 -478 -7 -474 -5 4 -125 220 -268 479 l-260 472 -213 3 -212 2 0 -805z"/>
<path d="M9592 1822 l-232 -697 0 -108 0 -107 161 2 161 3 67 210 67 210 239
0 239 0 69 -213 68 -212 175 0 174 0 0 98 0 97 -237 707 -238 708 -240 0 -240
0 -233 -698z m542 24 c36 -115 64 -211 62 -213 -2 -2 -66 -2 -143 -1 l-140 3
71 218 c38 119 73 214 77 210 4 -5 37 -102 73 -217z"/>
<path d="M10780 2370 l0 -150 210 0 210 0 0 -655 0 -655 200 0 200 0 0 655 0
655 210 0 210 0 0 150 0 150 -620 0 -620 0 0 -150z"/>
<path d="M12300 1715 l0 -805 195 0 195 0 0 805 0 805 -195 0 -195 0 0 -805z"/>
</g>
</svg>
